<svg width="112" height="112" viewBox="0 0 112 112" xmlns="http://www.w3.org/2000/svg"><g fill="none" fill-rule="evenodd"><path fill="#AEF9FF" d="M53.518 45.283h48.563V16H53.518z"/><path d="M94.046 28.996l-77.461.064.06 54.793 77.401-.064V28.996zm.062 58.439H16.585A3.586 3.586 0 0113 83.853V28.996a3.586 3.586 0 013.585-3.581h77.523a3.585 3.585 0 013.584 3.581v54.857a3.585 3.585 0 01-3.584 3.582z" fill="#007FED"/><path d="M87.508 39.477H57.476a1.826 1.826 0 01-1.823-1.822 1.82 1.82 0 011.823-1.823h30.032a1.82 1.82 0 011.823 1.823 1.825 1.825 0 01-1.823 1.822M87.508 52.319H57.476a1.82 1.82 0 01-1.823-1.823c0-1.002.817-1.823 1.823-1.823h30.032c1.007 0 1.823.82 1.823 1.823a1.82 1.82 0 01-1.823 1.823M87.508 65.17H57.476a1.82 1.82 0 01-1.823-1.823c0-1.003.817-1.823 1.823-1.823h30.032c1.007 0 1.823.82 1.823 1.823a1.82 1.82 0 01-1.823 1.823M87.508 78.02H21.992a1.825 1.825 0 01-1.823-1.823c0-1.002.816-1.822 1.823-1.822h65.516c1.007 0 1.823.82 1.823 1.822a1.825 1.825 0 01-1.823 1.823M24.98 60.94h20.21a3.87 3.87 0 00-2.704-2.442l-3.88-.966a1.826 1.826 0 01-1.327-1.33l-.33-1.322a1.811 1.811 0 01.486-1.732 5.163 5.163 0 001.439-2.861 1.808 1.808 0 011.117-1.422l.201-1.622a1.817 1.817 0 01-.953-1.687l.093-1.913c.022-.447.211-.875.529-1.194l.378-.383c.09-.091.231-.246-.177-.866-.15-.228-.606-.93-2.313-.93-.575 0-1.773 0-2.823.711-.289.192-.629.301-.978.31-3.118.064-3.118 1.066-3.118 2.224 0 .219.052.884.17 1.887a1.827 1.827 0 01-1.022 1.859l.2 1.586c.65.21 1.134.774 1.238 1.467a5.17 5.17 0 001.369 2.77c.438.456.611 1.094.459 1.705l-.352 1.413a1.825 1.825 0 01-1.326 1.33l-3.882.966a3.872 3.872 0 00-2.704 2.443zm21.754 3.646H23.435a2.335 2.335 0 01-2.33-2.333 7.506 7.506 0 015.696-7.291l2.37-.592a8.974 8.974 0 01-1.145-2.516 3.339 3.339 0 01-1.44-2.351l-.254-2.024a3.335 3.335 0 01.811-2.624l.118-.128a14.608 14.608 0 01-.077-1.212c0-3.655 2.078-5.623 6.178-5.851 1.827-1.04 3.66-1.04 4.387-1.04 3.038 0 4.593 1.404 5.362 2.58 1.217 1.85 1.15 3.828-.172 5.313l-.01.228.11.119a3.35 3.35 0 01.798 2.615l-.252 2.024a3.348 3.348 0 01-1.296 2.25 9.057 9.057 0 01-1.19 2.644l2.272.565a7.506 7.506 0 015.693 7.291 2.335 2.335 0 01-2.33 2.333z" fill="#007FED"/></g></svg>