<svg width="112" height="112" viewBox="0 0 112 112" xmlns="http://www.w3.org/2000/svg"><g fill="none" fill-rule="evenodd"><path fill="#AEF9FF" d="M56.048 16H94.29v38.242z"/><path d="M65.204 37.537H49.2a1.582 1.582 0 01-1.584-1.585c0-.87.71-1.584 1.584-1.584h16.004c.875 0 1.584.713 1.584 1.584 0 .88-.71 1.585-1.584 1.585M20.168 79.707v.903c.113 6.598 4.403 11.984 9.565 11.984H70.28c-2.333-2.154-3.797-5.236-3.797-8.634v-3.54c0-.262-.08-.523-.178-.713H20.168zm9.564 16.055c-6.996 0-12.588-6.645-12.732-15.128v-2.511c0-.872.709-1.584 1.584-1.584h48.404c.322 0 .635.103.898.285 1.073.736 1.765 2.146 1.765 3.596v3.54c0 4.69 3.812 8.547 8.498 8.61.467.008.908.222 1.204.579l.06.079a1.58 1.58 0 01-1.266 2.535H29.732z" fill="#007FED"/><path d="M78.265 95.747l-.189-.008a1.576 1.576 0 01-1.545-1.608 1.594 1.594 0 011.595-1.56l.18.007c4.708 0 8.572-3.865 8.572-8.618V24.673H38.402l-.417 53.188A1.586 1.586 0 0136.4 79.43h-.012a1.585 1.585 0 01-1.572-1.6l.43-54.757a1.586 1.586 0 011.584-1.568h51.632c.875 0 1.584.713 1.584 1.584V83.96c0 6.503-5.285 11.787-11.781 11.787" fill="#007FED"/><path d="M75.903 40.539c-.433 0-.85-.175-1.15-.491l-3.084-3.256a1.577 1.577 0 01.06-2.234 1.579 1.579 0 012.24.056l1.687 1.782 4.276-6.74a1.586 1.586 0 012.675 1.702l-5.366 8.452a1.59 1.59 0 01-1.185.729h-.153M65.204 51.913H49.2a1.582 1.582 0 01-1.584-1.584c0-.872.71-1.584 1.584-1.584h16.004c.875 0 1.584.712 1.584 1.584 0 .879-.71 1.584-1.584 1.584M75.903 54.915c-.433 0-.85-.174-1.15-.491l-3.084-3.256a1.586 1.586 0 01.06-2.241 1.586 1.586 0 012.24.063l1.686 1.782 4.277-6.74a1.579 1.579 0 012.187-.483c.738.467.957 1.441.488 2.186l-5.366 8.451a1.58 1.58 0 01-1.185.72l-.153.009M65.204 66.29H49.2a1.582 1.582 0 01-1.584-1.585c0-.871.71-1.584 1.584-1.584h16.004c.875 0 1.584.713 1.584 1.584 0 .88-.71 1.584-1.584 1.584M75.903 69.291c-.433 0-.85-.174-1.15-.491l-3.084-3.255a1.587 1.587 0 01.06-2.242 1.579 1.579 0 012.24.063l1.687 1.775 4.276-6.733a1.588 1.588 0 012.187-.491c.738.475.957 1.45.488 2.194l-5.366 8.443a1.59 1.59 0 01-1.185.73l-.153.007" fill="#007FED"/></g></svg>