<svg width="112" height="112" viewBox="0 0 112 112" xmlns="http://www.w3.org/2000/svg"><g fill="none" fill-rule="evenodd"><path d="M80.583 67.676c0 8.045-6.517 14.562-14.555 14.562-8.039 0-14.556-6.517-14.556-14.562 0-8.036 6.517-14.553 14.556-14.553 8.038 0 14.555 6.517 14.555 14.553z" fill="#AEF9FF"/><path d="M55.79 51.405c-4.583 0-8.311 3.727-8.311 8.31 0 4.582 3.728 8.31 8.311 8.31s8.311-3.728 8.311-8.31c0-4.583-3.728-8.31-8.311-8.31zm0 19.94c-6.413 0-11.632-5.213-11.632-11.63 0-6.41 5.219-11.631 11.632-11.631 6.414 0 11.632 5.222 11.632 11.63 0 6.418-5.218 11.632-11.632 11.632z" fill="#007FED"/><path d="M24.924 45.32c-.147 0-.29.149-.29.29v4.084c0 .15.143.29.29.29h4.08a.309.309 0 00.291-.29V45.61c0-.141-.144-.29-.291-.29h-4.08zm4.08 7.986h-4.08a3.614 3.614 0 01-3.61-3.612V45.61a3.62 3.62 0 013.61-3.612h4.08a3.62 3.62 0 013.612 3.612v4.084a3.615 3.615 0 01-3.612 3.612zm26.786-6.99c-7.39 0-13.403 6.01-13.403 13.399 0 7.388 6.013 13.407 13.403 13.407 7.391 0 13.403-6.019 13.403-13.407 0-7.389-6.012-13.4-13.403-13.4zm0 30.127c-9.222 0-16.723-7.505-16.723-16.728 0-9.224 7.501-16.72 16.723-16.72 9.222 0 16.724 7.496 16.724 16.72 0 9.223-7.502 16.728-16.724 16.728zM22.352 36.544a7.04 7.04 0 00-7.031 7.032v40.58c0 .132.113.24.242.24H95.93c.13 0 .242-.108.242-.24V43.658c.035-1.918-.67-3.703-1.984-5.04a6.905 6.905 0 00-4.959-2.075h-17.65a1.66 1.66 0 01-1.486-.921l-3.37-6.741c-.505-.955-1.471-1.561-2.506-1.561H47.364c-1.058 0-2.058.614-2.489 1.527l-3.388 6.775a1.661 1.661 0 01-1.485.921h-8.514c-.917 0-1.66-.747-1.66-1.66V33.82a.564.564 0 00-.558-.564H24.66a.564.564 0 00-.557.564v1.063c0 .913-.744 1.66-1.66 1.66h-.09zM95.93 87.717H15.563A3.564 3.564 0 0112 84.155v-40.58c0-5.188 3.83-9.497 8.81-10.244a3.885 3.885 0 013.849-3.395h4.611a3.887 3.887 0 013.833 3.287h5.873l2.912-5.828C42.853 25.345 45.01 24 47.364 24h16.852c2.268 0 4.359 1.287 5.459 3.362l2.93 5.861h16.623c2.781 0 5.383 1.088 7.328 3.072a10.204 10.204 0 012.936 7.397v40.463a3.564 3.564 0 01-3.563 3.562z" fill="#007FED"/></g></svg>