<svg width="112" height="112" viewBox="0 0 112 112" xmlns="http://www.w3.org/2000/svg"><g fill="none" fill-rule="evenodd"><path d="M105.094 84.315c0 8.576-6.953 15.53-15.53 15.53-8.576 0-15.529-6.954-15.529-15.53 0-8.575 6.953-15.53 15.53-15.53 8.576 0 15.529 6.955 15.529 15.53z" fill="#AEF9FF"/><path d="M84.588 94.798c-9.514 0-17.255-7.74-17.255-17.255 0-.604.036-1.217.107-1.881a1.733 1.733 0 011.903-1.527 1.73 1.73 0 011.528 1.907 13.683 13.683 0 00-.087 1.5c0 7.619 6.193 13.805 13.804 13.805 7.611 0 13.804-6.186 13.804-13.804 0-3.512-1.333-6.86-3.753-9.439a1.718 1.718 0 01.076-2.433 1.725 1.725 0 012.438.07 17.184 17.184 0 014.69 11.802c0 9.516-7.74 17.255-17.255 17.255" fill="#007FED"/><path d="M19.339 15.451a1.889 1.889 0 00-1.888 1.89v54.896c0 1.044.846 1.89 1.888 1.89h48.338a17.222 17.222 0 0116.911-13.84c3.474 0 6.773 1.019 9.583 2.917V17.34c0-1.044-.847-1.889-1.888-1.889H19.339zm49.816 62.126H19.34A5.347 5.347 0 0114 72.237V17.34A5.347 5.347 0 0119.339 12h72.944a5.347 5.347 0 015.339 5.34v49.582a1.725 1.725 0 01-2.983 1.182c-2.644-2.812-6.214-4.365-10.05-4.365A13.773 13.773 0 0070.87 76.033a1.728 1.728 0 01-1.716 1.544z" fill="#007FED"/><path d="M86.03 73.997l.085.138-.085-.138zm-7.735 6.134l.1.224a2.698 2.698 0 01-.1-.224zm3.366-.371c.003.095.002.181-.003.276l-.01.19-.294 2.381 2.171-1.027.174-.069.205-.077.139-.035.13-.034.167-.035.139-.026c.086-.008.171-.017.258-.017h.276c.094 0 .191.009.285.026l.151.026.133.026.129.034.146.043.143.052.227.086 2.158 1.01-.31-2.381-.014-.225a3.156 3.156 0 01-.001-.224 1.934 1.934 0 01.019-.371 3.54 3.54 0 01.131-.57c.03-.086.065-.172.103-.267a2.91 2.91 0 01.143-.285 1.81 1.81 0 01.17-.267l.16-.216.118-.138 1.636-1.742-2.3-.44-.165-.026a4.173 4.173 0 01-.324-.087c-.081-.026-.16-.051-.235-.077a3.42 3.42 0 01-.483-.26l-.1-.068-.17-.12a1.805 1.805 0 01-.27-.225 2.862 2.862 0 01-.349-.423l-.017-.026a1.62 1.62 0 01-.156-.25l-1.163-2.097-1.147 2.106-.064.112-.06.095-.064.095a3.331 3.331 0 01-.342.414 3.829 3.829 0 01-.425.353l-.084.052c-.155.104-.317.19-.488.268-.207.077-.383.129-.563.172l-.167.026-2.24.431 1.647 1.735.13.155c.063.077.123.155.178.241.084.121.128.199.168.268a2.8 2.8 0 01.133.285c.038.086.067.163.092.232l.037.13c.112.32.112.587.112.69v.095zm-2.406 7.48c-.356 0-.71-.112-1.01-.328a1.715 1.715 0 01-.702-1.605l.663-5.374-3.712-3.909a1.726 1.726 0 01.922-2.881l5.295-1.027 2.567-4.728a1.72 1.72 0 011.51-.897h.006c.628 0 1.206.345 1.51.889l2.599 4.693 5.364 1.018a1.732 1.732 0 01.937 2.882l-3.689 3.934.698 5.357a1.716 1.716 0 01-.694 1.614c-.51.37-1.18.44-1.75.172l-4.892-2.295-4.881 2.321a1.716 1.716 0 01-.74.164zM87.074 28.185H58.116a1.723 1.723 0 01-1.726-1.725c0-.95.773-1.726 1.726-1.726h28.958c.952 0 1.725.777 1.725 1.726 0 .957-.773 1.725-1.725 1.725M87.074 41.031H58.116a1.728 1.728 0 01-1.726-1.725c0-.958.773-1.726 1.726-1.726h28.958c.952 0 1.725.768 1.725 1.726 0 .949-.773 1.725-1.725 1.725M87.074 53.869H23.565a1.723 1.723 0 01-1.725-1.725c0-.95.773-1.726 1.725-1.726h63.509c.952 0 1.725.777 1.725 1.726 0 .957-.773 1.725-1.725 1.725M66.893 66.715h-43.06a1.728 1.728 0 01-1.726-1.725c0-.958.773-1.726 1.726-1.726h43.06c.954 0 1.726.768 1.726 1.726 0 .949-.772 1.725-1.726 1.725M26.738 42.955h19.576a3.752 3.752 0 00-2.644-2.415l-3.742-.94a1.73 1.73 0 01-1.255-1.252l-.319-1.277a1.715 1.715 0 01.46-1.639 4.996 4.996 0 001.396-2.778c.09-.612.504-1.13 1.076-1.354l.2-1.596c-.59-.311-.956-.94-.923-1.614l.09-1.837c.021-.432.2-.837.504-1.14l.365-.362c.091-.103.238-.258-.17-.88-.147-.224-.594-.906-2.257-.906-.558 0-1.719 0-2.74.682-.275.19-.596.285-.926.293-3.038.07-3.038 1.044-3.038 2.183 0 .259.067.984.165 1.82a1.725 1.725 0 01-.988 1.77l.197 1.578c.625.19 1.092.725 1.19 1.389.15.992.635 1.967 1.33 2.692.415.423.579 1.035.435 1.613l-.34 1.363a1.728 1.728 0 01-1.255 1.26l-3.741.932a3.755 3.755 0 00-2.646 2.415zm21.02 3.451H25.293a2.216 2.216 0 01-2.213-2.217 7.203 7.203 0 015.468-6.997l2.323-.578a8.526 8.526 0 01-1.126-2.476 3.175 3.175 0 01-1.382-2.243l-.244-1.959a3.204 3.204 0 01.774-2.51l.122-.13c-.043-.448-.075-.88-.075-1.173 0-3.511 1.996-5.392 5.935-5.616 1.756-.992 3.522-.992 4.22-.992 2.916 0 4.407 1.337 5.142 2.467 1.169 1.777 1.103 3.675-.17 5.09l-.012.25.119.121a3.2 3.2 0 01.76 2.493l-.244 1.95a3.172 3.172 0 01-1.247 2.157 8.67 8.67 0 01-1.17 2.588l2.235.561a7.203 7.203 0 015.464 6.997 2.216 2.216 0 01-2.214 2.217z" fill="#007FED"/></g></svg>