<svg width="112" height="112" viewBox="0 0 112 112" xmlns="http://www.w3.org/2000/svg"><g fill="none" fill-rule="evenodd"><path fill="#AEF9FF" d="M69.199 16H30.957v38.242z"/><path d="M22.168 79.707v.895c.112 6.598 4.403 11.992 9.565 11.992h40.545c-2.33-2.154-3.795-5.236-3.795-8.634v-3.54c0-.262-.08-.523-.178-.713H22.168zm9.565 16.055c-6.997 0-12.59-6.645-12.733-15.128v-2.511c0-.872.709-1.584 1.584-1.584h48.404c.32 0 .635.095.898.277 1.072.736 1.765 2.154 1.765 3.604v3.54c0 4.682 3.812 8.547 8.497 8.61.49.008.948.238 1.242.626a1.585 1.585 0 01-1.242 2.566H31.733z" fill="#007FED"/><path d="M80.265 95.747l-.188-.008a1.577 1.577 0 01-1.546-1.616 1.59 1.59 0 011.622-1.553l.152.008c4.71 0 8.573-3.865 8.573-8.618V24.673H40.402l-.417 53.18a1.585 1.585 0 11-3.168-.024l.43-54.756a1.58 1.58 0 011.583-1.568h51.632c.875 0 1.584.705 1.584 1.584V83.96c0 6.495-5.285 11.787-11.781 11.787" fill="#007FED"/><path d="M54.12 49.022c-3.644-.713-5.36-1.252-5.36-3.073 0-1.323.57-2.242 1.745-2.804 2.04-.99 5.427-.61 7.247.823a1.55 1.55 0 002.189-.261 1.553 1.553 0 00-.261-2.186c-1.247-.982-2.867-1.608-4.554-1.877V36.87a1.559 1.559 0 10-3.12 0v2.678c-1.02.118-2 .364-2.863.784-2.26 1.1-3.503 3.089-3.503 5.616 0 4.586 4.553 5.48 7.876 6.138 3.586.705 4.86 1.188 4.86 2.495 0 1.283-.541 2.186-1.652 2.757-1.958 1.021-5.234.72-7.16-.642a1.556 1.556 0 00-2.173.372 1.555 1.555 0 00.37 2.17c1.196.848 2.694 1.395 4.246 1.648v3.723a1.559 1.559 0 103.119 0v-3.683c1.087-.127 2.14-.349 3.03-.816 2.153-1.109 3.339-3.073 3.339-5.529 0-4.11-4.088-4.91-7.375-5.56" fill="#007FED"/><path d="M48.664 57.006a.945.945 0 00-.787.404.967.967 0 00.228 1.346c1.07.76 2.453 1.292 3.997 1.545l.499.08v4.229c0 .539.433.966.965.966a.963.963 0 00.966-.966v-4.214l.527-.063c1.182-.127 2.106-.373 2.825-.745 1.945-1.006 3.017-2.78 3.017-5.006 0-3.62-3.663-4.34-6.895-4.974-3.634-.713-5.84-1.315-5.84-3.66 0-1.552.7-2.669 2.08-3.342 2.26-1.093 5.865-.681 7.873.895a.966.966 0 00.711.206.981.981 0 00.643-.364.964.964 0 00-.16-1.355c-1.115-.88-2.596-1.481-4.283-1.758l-.498-.087V36.87a.968.968 0 00-.966-.966.968.968 0 00-.965.966v3.208l-.526.064c-1.016.11-1.915.356-2.673.728-2.043.99-3.168 2.796-3.168 5.078 0 4.095 4.1 4.902 7.395 5.552 3.323.65 5.34 1.188 5.34 3.081 0 1.505-.664 2.614-1.973 3.287-2.162 1.125-5.65.816-7.775-.689a.966.966 0 00-.557-.174zm4.902 9.758a2.157 2.157 0 01-2.153-2.154v-3.232c-1.523-.309-2.896-.871-3.996-1.655a2.157 2.157 0 01-.51-3.002 2.158 2.158 0 012.998-.515c1.74 1.236 4.797 1.52 6.545.61.909-.467 1.332-1.18 1.332-2.234 0-.729-.633-1.18-4.38-1.917-3.33-.65-8.356-1.64-8.356-6.716 0-2.765 1.362-4.943 3.837-6.147.743-.364 1.592-.618 2.53-.768V36.87c0-1.188.966-2.154 2.153-2.154 1.188 0 2.154.966 2.154 2.154v2.274c1.68.34 3.168.998 4.326 1.908.453.357.74.864.808 1.434.07.57-.09 1.133-.446 1.584-.354.46-.865.745-1.436.816a2.164 2.164 0 01-1.589-.451c-1.631-1.284-4.788-1.648-6.62-.76-.975.474-1.41 1.172-1.41 2.273 0 1.22 1.004 1.734 4.882 2.495 3.315.65 7.855 1.544 7.854 6.138 0 2.693-1.3 4.84-3.66 6.06-.734.38-1.624.641-2.709.808v3.16a2.157 2.157 0 01-2.154 2.154zM83.973 42.123H65.92a1.582 1.582 0 01-1.584-1.584c0-.872.71-1.585 1.584-1.585h18.053c.875 0 1.584.713 1.584 1.585 0 .879-.71 1.584-1.584 1.584M83.973 49.616H65.92a1.587 1.587 0 01-1.584-1.584c0-.88.71-1.584 1.584-1.584h18.053c.875 0 1.584.704 1.584 1.584 0 .871-.71 1.584-1.584 1.584M83.973 57.101H65.92a1.587 1.587 0 01-1.584-1.584c0-.88.71-1.584 1.584-1.584h18.053c.875 0 1.584.705 1.584 1.584 0 .871-.71 1.584-1.584 1.584M83.973 64.586H65.92a1.587 1.587 0 01-1.584-1.584c0-.88.71-1.584 1.584-1.584h18.053c.875 0 1.584.705 1.584 1.584 0 .871-.71 1.584-1.584 1.584" fill="#007FED"/></g></svg>