<svg width="112" height="112" viewBox="0 0 112 112" xmlns="http://www.w3.org/2000/svg"><g fill="none" fill-rule="evenodd"><path fill="#AEF9FF" d="M46.74 38.286l.083-.085h27.38l.082.085v45.506l-.083.077h-27.38l-.083-.077z"/><path d="M69.103 23.646c-2.787.84-6.236 4.175-9.668 9.318 3.596-1.26 6.793-4.029 9.089-7.963.262-.515.449-.969.58-1.355zM52.8 37.326l1.611-2.768c2.99-5.143 8.943-13.852 15.251-14.512.165-.025.33-.034.494-.034a3.07 3.07 0 011.727.386l.47.257.235.489c.524 1.08.119 3.222-1.033 5.468l-.043.077c-3.634 6.249-9.289 10.055-15.515 10.44l-3.197.197z" fill="#007FED"/><path d="M42.457 25c2.295 3.935 5.493 6.704 9.088 7.964-3.432-5.143-6.88-8.478-9.668-9.326.131.394.318.848.58 1.363zm15.724 12.326l-3.197-.197c-6.226-.385-11.88-4.191-15.515-10.44l-.043-.077c-1.139-2.22-1.557-4.346-1.065-5.417l.212-.463.43-.266a2.928 2.928 0 011.835-.454c.171 0 .342.009.513.034 6.258.635 12.225 9.36 15.219 14.512l1.611 2.768z" fill="#007FED"/><path d="M87.567 38.98l-64.194.06.056 9.215 64.138-.051V38.98zm.056 12.652h-64.25A3.38 3.38 0 0120 48.255v-9.274a3.373 3.373 0 013.373-3.369h64.25a3.372 3.372 0 013.372 3.369v9.274a3.38 3.38 0 01-3.372 3.377z" fill="#007FED"/><path d="M26.512 51.684v36.06l57.438.017.02-.017v-36.06H26.512zM83.95 91.189H26.532a3.45 3.45 0 01-3.449-3.445V49.969c0-.943.768-1.714 1.714-1.714h60.888c.947 0 1.714.771 1.714 1.714v37.775a3.45 3.45 0 01-3.45 3.445z" fill="#007FED"/><path d="M47.71 87.71h14.124V38.997H47.71v48.711zm15.838 3.428H45.996a1.712 1.712 0 01-1.714-1.714v-52.14c0-.952.768-1.715 1.714-1.715h17.552c.947 0 1.714.763 1.714 1.715v52.14c0 .951-.767 1.714-1.714 1.714z" fill="#007FED"/></g></svg>