<svg width="112" height="112" viewBox="0 0 112 112" xmlns="http://www.w3.org/2000/svg"><g fill="none" fill-rule="evenodd"><path d="M98.76 84.702c0 8.41-6.819 15.23-15.23 15.23-8.413 0-15.231-6.82-15.231-15.23 0-8.411 6.818-15.231 15.23-15.231S98.76 76.29 98.76 84.7z" fill="#AEF9FF"/><path d="M50.813 89.626C29.411 89.626 12 72.212 12 50.813 12 29.413 29.411 12 50.813 12c21.401 0 38.812 17.414 38.812 38.813 0 5.627-1.178 11.06-3.504 16.136a1.696 1.696 0 01-2.242.838 1.7 1.7 0 01-.835-2.25c2.121-4.63 3.197-9.588 3.197-14.724 0-19.538-15.893-35.428-35.428-35.428-19.535 0-35.428 15.89-35.428 35.428 0 19.538 15.893 35.429 35.428 35.429 4.127 0 8.17-.703 12.02-2.09a1.692 1.692 0 111.147 3.182 38.643 38.643 0 01-13.167 2.292" fill="#007FED"/><path d="M78.089 66.788c-7.465 0-13.539 6.076-13.539 13.539 0 7.471 6.074 13.538 13.539 13.538s13.538-6.067 13.538-13.538c0-7.463-6.073-13.539-13.538-13.539zm0 30.462c-9.332 0-16.923-7.59-16.923-16.923 0-9.325 7.591-16.923 16.923-16.923 9.331 0 16.923 7.598 16.923 16.923 0 9.333-7.592 16.923-16.923 16.923z" fill="#007FED"/><path d="M73.625 75.022c-.667 0-1.313.287-1.969.863-.625.541-.952 1.201-.978 1.946-.033 1.007.5 2.132 1.462 3.097l5.949 5.745 5.969-5.77c.94-.94 1.474-2.065 1.44-3.072-.024-.745-.352-1.405-.975-1.946-.72-.635-1.43-.914-2.158-.855-1.332.102-2.594 1.295-2.967 1.752a1.72 1.72 0 01-1.307.609h-.008c-.504 0-.984-.22-1.303-.618-.374-.448-1.635-1.641-2.968-1.743l-.187-.008zm4.464 15.696c-.424 0-.848-.161-1.176-.474l-7.145-6.905c-1.666-1.667-2.537-3.655-2.473-5.618.057-1.701.792-3.216 2.128-4.383 1.406-1.236 3.03-1.828 4.685-1.676 1.667.136 3.046.956 3.98 1.701.937-.745 2.314-1.565 3.981-1.7 1.66-.153 3.279.44 4.687 1.675 1.334 1.167 2.07 2.682 2.126 4.383.064 1.963-.807 3.951-2.453 5.593l-7.164 6.93a1.704 1.704 0 01-1.176.474zM26.298 80.217a1.69 1.69 0 01-1.692-1.692c0-6.245 4.23-11.66 10.284-13.167l7.112-1.776.27-1.084a16.56 16.56 0 01-3.508-7.056 4.843 4.843 0 01-2.74-3.791l-.529-4.231a4.858 4.858 0 012.056-4.595c-.13-1.201-.262-2.623-.262-3.401 0-4.189 1.195-9.748 11.404-10.137 3.452-2.132 6.988-2.132 8.532-2.132 4.334 0 7.505 1.489 9.424 4.417 2.05 3.13 1.942 6.286-.297 8.673l-.366.363-.111 2.285a4.844 4.844 0 011.961 4.527l-.529 4.23a4.846 4.846 0 01-2.466 3.648 16.457 16.457 0 01-3.728 7.404l.218.871 7.114 1.785a1.686 1.686 0 011.231 2.048 1.697 1.697 0 01-2.052 1.236l-8.099-2.031a1.696 1.696 0 01-1.231-1.227l-.69-2.759a1.697 1.697 0 01.451-1.616c1.905-1.887 3.22-4.493 3.607-7.15a1.682 1.682 0 011.216-1.387c.577-.161.997-.652 1.07-1.244l.53-4.223a1.474 1.474 0 00-.946-1.565 1.694 1.694 0 01-1.09-1.667l.195-3.977c.021-.423.197-.812.493-1.108l.79-.796c.694-.744 1.48-2.047-.102-4.467-1.272-1.938-3.428-2.886-6.593-2.886-1.41 0-4.342 0-7.069 1.836-.269.178-.583.28-.907.288-7.914.16-8.575 3.427-8.575 6.76 0 .644.138 2.2.371 4.172a1.688 1.688 0 01-1.17 1.811 1.56 1.56 0 00-.66.432 1.488 1.488 0 00-.361 1.167l.528 4.231c.08.635.557 1.142 1.188 1.27a1.682 1.682 0 011.35 1.404c.385 2.555 1.636 5.094 3.43 6.947a1.68 1.68 0 01.426 1.582l-.737 2.945a1.693 1.693 0 01-1.231 1.235l-8.098 2.023a10.167 10.167 0 00-7.72 9.883 1.69 1.69 0 01-1.692 1.692" fill="#007FED"/></g></svg>