<svg width="112" height="112" viewBox="0 0 112 112" xmlns="http://www.w3.org/2000/svg"><g fill="none" fill-rule="evenodd"><path d="M63.228 42.301c9.02 0 16.33 7.312 16.33 16.33 0 9.018-7.31 16.33-16.33 16.33-9.018 0-16.33-7.312-16.33-16.33 0-9.018 7.312-16.33 16.33-16.33" fill="#AEF9FF"/><path d="M55.629 12c2.46.01 5.292.626 8.392 1.551 3.095.944 6.437 2.214 9.782 3.602 6.68 2.767 13.387 5.997 17.847 7.875.671.28 1.11.943 1.11 1.669 0 2.722.149 6.668.3 11.113.15 4.446.302 9.4.302 14.19 0 3.193-.068 6.313-.249 9.18-.183 2.858-.476 5.453-.953 7.639-.32 1.452-.714 2.722-1.273 3.81l.018-.038c-.515 1.066-1.235 2.095-2.11 3.139l-.336.392c-1.028 1.17-2.25 2.35-3.615 3.547-2.73 2.395-6.036 4.836-9.487 7.204-6.893 4.717-14.383 9.153-18.74 11.984-.602.39-1.374.39-1.975 0-2.863-1.86-7.08-4.436-11.58-7.33-4.502-2.894-9.292-6.097-13.357-9.254-2.713-2.114-5.101-4.2-6.898-6.214-1.026-1.153-1.863-2.287-2.447-3.448l.001-.001-.161-.329c-.387-.827-.686-1.758-.937-2.788l-.105-.447c-.304-1.352-.53-2.876-.7-4.527-.34-3.293-.458-7.122-.458-11.114 0-4.98.185-10.224.37-14.941.184-4.718.368-8.918.367-11.767l.006-.155a1.816 1.816 0 011.104-1.514c3.341-1.407 7.957-3.575 12.853-5.743 4.9-2.16 10.082-4.318 14.668-5.725 3.067-.934 5.852-1.55 8.26-1.56zm0 83.174l-.227.145c-.262.168-.516.33-.76.49l.987 1.524.988-1.524-.818-.527-.17-.108zm0-79.545c-1.767-.01-4.321.508-7.198 1.397-2.883.88-6.112 2.114-9.375 3.475-5.86 2.44-11.817 5.274-16.307 7.233l-.393.17v.025c-.037 2.725-.185 6.216-.336 10.068l-.024.612c-.184 4.699-.367 9.897-.367 14.796 0 2.94.066 5.77.235 8.31.167 2.54.442 4.79.834 6.541.26 1.162.578 2.096.898 2.713l.01.018c.37.744 1.024 1.67 1.912 2.658.886.998 2.003 2.078 3.283 3.194 2.561 2.232 5.774 4.617 9.156 6.949 6.173 4.26 12.89 8.339 17.411 11.22l.261.166.172-.109c2.698-1.715 6.184-3.843 9.882-6.188l.556-.353c4.46-2.84 9.175-5.97 13.087-9.018 2.606-2.023 4.855-4.01 6.405-5.779.886-1.007 1.539-1.941 1.91-2.722l.021-.036c.34-.653.68-1.67.953-2.93.277-1.261.498-2.776.664-4.455.335-3.356.455-7.393.454-11.585 0-4.708-.15-9.625-.3-14.062-.129-3.81-.259-7.254-.293-9.954l-.001-.081-.374-.162c-3.071-1.342-6.827-3.09-10.784-4.843l-.662-.292c-4.856-2.14-9.972-4.254-14.35-5.579-2.91-.88-5.506-1.406-7.34-1.397zm.226 16.874l.15.006c.602.05 1.149.393 1.443.929l4.62 8.346.053.082.01.016.087.074.06.051.06.041-.003.005.019.006.009.006-.01.014.052.005-.034-.019.054.018.02.005.006.001.11.022 9.475 1.796a1.835 1.835 0 011.386 1.225c.204.626.05 1.315-.401 1.796l-6.506 6.95-.102.135-.027.036-.03.064-.024.063-.017.064-.001.01v.063l-.002.1v.072l.001.079 1.224 9.41a1.818 1.818 0 01-.6 1.594l-.129.103a1.81 1.81 0 01-.896.339l-.16.008a1.853 1.853 0 01-.784-.166l-8.587-4.028-.02-.009.009.01-.17-.064-.072-.018h-.252l-.056.009-.17.063h-.01l-8.586 4.083c-.2.093-.41.149-.623.167l-.16.006a1.807 1.807 0 01-1.057-.346 1.812 1.812 0 01-.739-1.696l1.162-9.404v-.004l.002-.09.001-.037v-.045l-.003-.091v-.064l-.001-.009-.016-.054-.023-.064-.031-.063-.03-.045-.109-.146-6.544-6.894a1.807 1.807 0 01-.412-1.797 1.82 1.82 0 011.383-1.234l9.419-1.823.107-.017.08-.047-.007.01.065-.045.066-.058.05-.06.026-.037.043-.073 4.564-8.391a1.81 1.81 0 011.588-.944zm-6.589 22.118v.109l-.014.227-.77 6.241 5.686-2.694.17-.073.104-.036.01-.009.247-.082.158-.045.222-.054.172-.037.242-.036.27-.018h.475c.107 0 .187 0 .292.018l.26.045.15.028.223.054.158.054.247.082.01.01.105.035.161.064 5.667 2.658-.81-6.242-.015-.226v-.118l-.004-.127.004-.136H64.5l-1.812-.091-.003.072v-.208c0-.055.003-.11.008-.164l.021-.163.044-.236.034-.154.062-.227.059-.181.086-.227.06-.136.106-.218.095-.172.124-.2.092-.136.16-.208.024-.028.068-.09.097-.11 4.291-4.58-6.14-1.163-.048-.005-.121-.021a3.915 3.915 0 01-.69-.2l.183.065-.098-.023-.17-.06a4.711 4.711 0 01-.659-.354l-.023-.009-.093-.063-.023-.018a5.07 5.07 0 01-.18-.13l-.063-.051-.105-.066a1.799 1.799 0 01-.127-.098l-.118-.11a4.737 4.737 0 01-.473-.57l-.028-.037-.061-.1-.015-.018-.086-.136-.057-.1-3.047-5.497-3.004 5.524-.044.073-.087.145-.04.064-.062.09-.016.019a3.566 3.566 0 01-.472.571l-.042.046a4.26 4.26 0 01-.52.426l-.028.018-.094.064a5.484 5.484 0 01-.654.353l-.065.028a5.416 5.416 0 01-.7.208 1.64 1.64 0 01-.124.022l-.043.003-6.085 1.173 4.324 4.554.11.136.07.082.017.027.16.209.093.136.123.19.095.173.107.217.058.136.086.218.063.2.061.227.033.145.043.245c.02.1.03.208.03.317v.227l-.002-.001.004.137-.004.127h-1.813l1.812.09.001-.09h.001zm-3.615-.109l-.014.113v.105h1.815l-1.8-.218zm20.648-.054l-1.799.236h1.814l-.001-.13-.014-.106zm-1.15-1.778l1.324 1.242.042-.045.056-.072-1.422-1.125zm-15.532-8.737v1.815h.057l.126-.004.079-.008.084-.016-.346-1.787zm12.606-.054l-.34 1.787.093.017.068.007c.039.002.08.003.123.003h.056V43.89zm-.452-.118l-.654 1.696.183.065.076.02c.118.022.238.033.358.033h.037v-1.814zm-.804-.5l-1.251 1.316.165.149.11.088.028.019c.274.159.588.243.91.243h.038v-1.814zm-11.59-1.121l-.077.024.373 1.768v-1.047l-.32-.73.024-.015zm13.028-.066l.03.017-.269.639v1.149l.361-1.778-.082-.023-.04-.004zm-.239.274l-.432.647v.766l.432-1.031v-.382zm-.432-.122l-.805.529v.507l.805-.8v-.236zm.463-.224l-.463.46v.335l.432-.65v-.083h.055l.032-.048-.056-.014zm-1.23-.555h-.038v1.297l.805-.565v-.233h.037c.058 0 .114.003.169.009l.094.014.11-.077-.013-.02-.044-.038a1.83 1.83 0 00-1.12-.387zm-38.601-14.76H20.55l.704 1.678c.318-.134.645-.274.982-.419l.119-.052.005-.399c.003-.278.005-.548.005-.808zm68.58 0H89.13c0 .271.002.552.004.843l.004.362.132.058c.332.144.656.282.97.415l.705-1.678z" fill="#007FED"/></g></svg>