<svg width="128" height="128" viewBox="0 0 128 128" xmlns="http://www.w3.org/2000/svg"><g fill="none" fill-rule="evenodd"><path d="M102.9 54H63.09c-.05 0-.09-.05-.09-.1V14.09c0-.05.04-.09.09-.09h39.81c.05 0 .1.04.1.09V53.9c0 .05-.05.1-.1.1" fill="#AAE4FF"/><path d="M93.953 20C96.181 20 98 21.835 98 24.083v30.272l10.245 3.455a4.01 4.01 0 012.337 2.027c.472.954.552 2.047.2 3.06l-16.58 48.38c-.571 1.67-2.146 2.723-3.841 2.723-.432 0-.863-.07-1.294-.209l-69.312-23.31a4.01 4.01 0 01-2.337-2.027 3.96 3.96 0 01-.2-3.06l2.008-5.828A4.094 4.094 0 0117 75.916V24.084C17 21.835 18.809 20 21.037 20h72.916zM21.019 86.675l69.331 23.35 16.631-48.4L98 58.565v17.352C98 78.165 96.181 80 93.953 80H72.105l17.523 6.008a2.065 2.065 0 011.266 2.6A2.033 2.033 0 0188.97 90c-.213 0-.436-.04-.648-.113l-25.94-8.896a2.044 2.044 0 01-1.148-.99L35.235 80l50.408 17.096a2.014 2.014 0 011.253 2.542A2.01 2.01 0 0184.992 101c-.21 0-.431-.04-.641-.11L28.36 81.899A1.99 1.99 0 0127 80L23.32 80l-2.301 6.675zm.018-62.642l-.04 51.884 72.956.05c.02 0 .05-.03.05-.05V24.083l-72.966-.05zM86.001 65a2 2 0 110 4H26.999a2 2 0 110-4h59.002zm.002-12c1.098 0 1.997.89 1.997 2 0 1.1-.899 2-1.997 2H58.997C57.889 57 57 56.1 57 55c0-1.11.889-2 1.997-2h27.006zM41.41 31c2.901 0 4.397 1.355 5.14 2.49 1.165 1.766 1.134 3.654-.07 5.11.622.722.903 1.676.783 2.62l-.221 1.826a3.389 3.389 0 01-1.215 2.199 8.316 8.316 0 01-.833 1.947l1.586.392A7.163 7.163 0 0152 54.53 2.48 2.48 0 0149.53 57H28.46A2.466 2.466 0 0126 54.53a7.152 7.152 0 015.42-6.946l1.657-.412a8.426 8.426 0 01-.783-1.827 3.407 3.407 0 01-1.345-2.299l-.22-1.837c-.121-.963.18-1.927.812-2.66h.01l-.033-.384-.02-.323a5.677 5.677 0 01-.007-.257c0-3.453 2.018-5.4 5.843-5.641 1.206-.668 2.403-.863 3.242-.92l.336-.017L41.2 31l.21-.001zm0 4.015l-.25.002-.295.012c-.472.03-1.064.127-1.627.445l-.187.114c-.321.22-.692.33-1.074.341-1.752.036-2.261.37-2.409.905l-.032.15-.018.161-.008.17-.002.32.014.23.058.65.056.536.022.2a2.001 2.001 0 01-.893 1.908l.12.994c.561.248.971.75 1.113 1.358l.032.168a4.38 4.38 0 00.987 2.134l.157.175c.482.492.673 1.204.502 1.877l-.311 1.285a2.015 2.015 0 01-1.466 1.455l-3.503.884a3.104 3.104 0 00-1.978 1.496h17.156a3.158 3.158 0 00-1.968-1.506l-3.513-.874a2.012 2.012 0 01-1.466-1.465l-.29-1.195a2.005 2.005 0 01.42-1.79l.111-.117a4.25 4.25 0 001.195-2.38 2 2 0 011.034-1.475l.13-1.044a2.017 2.017 0 01-.833-1.727l.08-1.726c.03-.492.231-.964.583-1.315l.34-.342-.006-.004-.094-.175a2.612 2.612 0 00-.045-.076l-.1-.155a1.1 1.1 0 00-.03-.04l-.077-.088c-.208-.214-.644-.476-1.635-.476zM86.003 41c1.098 0 1.997.9 1.997 2 0 1.11-.899 2-1.997 2H58.997A1.991 1.991 0 0157 43c0-1.1.889-2 1.997-2h27.006zm0-11c1.098 0 1.997.89 1.997 2 0 1.1-.899 2-1.997 2H58.997C57.889 34 57 33.1 57 32c0-1.11.889-2 1.997-2h27.006z" fill="#007FED"/></g></svg>
