<svg width="128" height="128" viewBox="0 0 128 128" xmlns="http://www.w3.org/2000/svg"><g fill="none" fill-rule="evenodd"><path d="M92.51 14c11.05 0 20 8.96 20 20 0 11.05-8.95 20-20 20-11.04 0-20-8.95-20-20 0-11.04 8.96-20 20-20" fill="#AAE4FF"/><path d="M62.65 18.34a2 2 0 012 2v5.274c2.95-1.589 6.164-2.469 9.44-2.574h.47c.086 0 .171.006.255.016a1.98 1.98 0 01.255-.016h.46c13.12.41 23.43 12.83 25.07 30.21.117 1.24.18 2.375.208 3.42l.015.876c.006.712-.004 1.381-.025 2.013l-.03.74-.036.708-.064 1.003-.108 1.523-.056 1.008-.02.631-.002.19.003.348c.027 1.044.21 1.537.634 1.97l.142.135.159.134.27.208.1.073c.94.68 1.5 1.78 1.5 2.93 0 1.16-.57 2.26-1.51 2.93-.9.644-2.13 1.127-3.608 1.43l.542.394.547.41.55.426.549.443c4.393 3.607 8.66 8.8 8.66 15.687v12.81a2 2 0 11-4 0V92.88c0-5.541-3.806-9.9-7.695-12.98l-.569-.441-.568-.424a40.51 40.51 0 00-.563-.404l-.558-.387-.547-.367-.537-.35-.521-.33-.75-.46-.703-.418-1.409-.809a1.996 1.996 0 01-.75-2.72 2.012 2.012 0 011.899-1.01c.127-.013.258-.013.391 0 .68.07 1.37.11 2.05.11 2.3 0 3.89-.37 4.78-.78-2.32-1.906-2.587-4.024-2.469-6.708l.048-.852.061-.89.088-1.242.04-.664.035-.695.026-.73.016-.764a45.858 45.858 0 00-.205-4.935c-1.44-15.31-10.16-26.25-21.2-26.59h-.34c-.087 0-.172-.005-.256-.016-.083.01-.168.016-.254.016h-.35c-3.417.104-6.627 1.209-9.561 3.27v12.91a15.245 15.245 0 012.211-2.8c1.24-1.25 2.8-2.29 4.91-3.28l1.62-.76 1.042 1.696.286.443.184.27.21.299.236.323.263.345.14.179.3.37.16.191.338.39.178.197.374.4c2.124 2.213 5.33 4.567 9.349 4.567 1.013 0 2.05-.15 3.083-.457l1.287-.413.8.5c.56.36.92.87 1.12 1.23.72 1.22.9 2.91.46 4.6-.57 2.24-2.16 3.98-3.89 4.32-2.21 7.8-7.94 15.65-14.68 15.65-3.965 0-7.393-2.66-9.981-6.091l.001 46.171a2 2 0 11-4 0V20.34c0-1.11.89-2 2-2zm-7.51 27.84c1.57 0 2.85 1.28 2.85 2.85v26.1c0 1.57-1.28 2.85-2.85 2.85h-4.16l-.02 12.36c0 .78-.46 1.5-1.18 1.82-.26.12-.54.17-.82.17-.48 0-.95-.17-1.33-.5L32.01 77.98H16.85c-1.57 0-2.85-1.28-2.85-2.85V48.19a2 2 0 012-2h.05l.18-.01h38.91zm39.99 40.45c1.11 0 2 .89 2 2a2 2 0 01-2 2H81.86a2 2 0 01-2-2c0-1.11.89-2 2-2h13.27zM53.99 50.18H18v23.8h14.77c.48 0 .96.18 1.32.5L46.97 85.9l.02-9.93c0-1.1.89-1.99 2-1.99h5v-23.8zm-6.38 13.95a2 2 0 012 2c0 1.11-.89 2-2 2H23.54c-1.11 0-2-.89-2-2a2 2 0 012-2h24.07zm24.35-22.58c-.93.53-1.67 1.09-2.27 1.7-1.581 1.572-2.338 3.232-2.886 4.67l-.274.74c-.19.53-.41 1.14-.65 1.62a3.686 3.686 0 01-1.23 1.389v5.541c2.38 6.05 6.49 10.27 9.98 10.27 4.51 0 9.15-6.68 10.87-12.87.39-1.47 1.56-2.5 2.99-2.7.16-.1.61-.52.84-1.4.07-.28.11-.54.11-.77-1 .21-2 .31-2.99.31-5.797 0-10.167-3.507-12.808-6.435l-.357-.404a26.467 26.467 0 01-.17-.199l-.324-.388-.3-.375-.277-.359-.254-.34zM47.61 54.99a2 2 0 012 2c0 1.11-.89 2-2 2H23.54c-1.11 0-2-.89-2-2a2 2 0 012-2h24.07z" fill="#007FED"/></g></svg>
